<svg xmlns="http://www.w3.org/2000/svg" width="805" height="600"><rect width="805" height="600" x="0" y="0" fill="#FFFFFF" id="backgorund"/><g id="viz"><clipPath id="serieClipPath"><rect x="-50" y="-17" width="805" height="600"/></clipPath><g transform="translate(0,0)"><g transform="translate(50,17)" clip-path="url(#serieClipPath)"><g id="axis"><g transform="translate(0,556)" fill="none" font-size="10" font-family="sans-serif" text-anchor="middle"><path class="domain" stroke="currentColor" d="M0,6V0H740V6"/><g class="tick" opacity="1" transform="translate(0,0)"><line stroke="currentColor" y2="6"/><text fill="currentColor" y="9" dy="0.71em">2010</text></g><g class="tick" opacity="1" transform="translate(67.2224987555998,0)"><line stroke="currentColor" y2="6"/><text fill="currentColor" y="9" dy="0.71em">2011</text></g><g class="tick" opacity="1" transform="translate(134.4449975111996,0)"><line stroke="currentColor" y2="6"/><text fill="currentColor" y="9" dy="0.71em">2012</text></g><g class="tick" opacity="1" transform="translate(201.8516674962668,0)"><line stroke="currentColor" y2="6"/><text fill="currentColor" y="9" dy="0.71em">2013</text></g><g class="tick" opacity="1" transform="translate(269.0741662518666,0)"><line stroke="currentColor" y2="6"/><text fill="currentColor" y="9" dy="0.71em">2014</text></g><g class="tick" opacity="1" transform="translate(336.2966650074664,0)"><line stroke="currentColor" y2="6"/><text fill="currentColor" y="9" dy="0.71em">2015</text></g><g class="tick" opacity="1" transform="translate(403.51916376306616,0)"><line stroke="currentColor" y2="6"/><text fill="currentColor" y="9" dy="0.71em">2016</text></g><g class="tick" opacity="1" transform="translate(470.9258337481334,0)"><line stroke="currentColor" y2="6"/><text fill="currentColor" y="9" dy="0.71em">2017</text></g><g class="tick" opacity="1" transform="translate(538.1483325037332,0)"><line stroke="currentColor" y2="6"/><text fill="currentColor" y="9" dy="0.71em">2018</text></g><g class="tick" opacity="1" transform="translate(605.370831259333,0)"><line stroke="currentColor" y2="6"/><text fill="currentColor" y="9" dy="0.71em">2019</text></g><g class="tick" opacity="1" transform="translate(672.5933300149328,0)"><line stroke="currentColor" y2="6"/><text fill="currentColor" y="9" dy="0.71em">2020</text></g><g class="tick" opacity="1" transform="translate(740,0)"><line stroke="currentColor" y2="6"/><text fill="currentColor" y="9" dy="0.71em">2021</text></g><text x="740" dy="-5" text-anchor="end" style="font-family: Arial, sans-serif; font-size: 12px; fill: rgb(123, 123, 123); font-weight: bold;">Year</text></g><g transform="translate(0,0)" fill="none" font-size="10" font-family="sans-serif" text-anchor="end"><path class="domain" stroke="currentColor" d="M0,556V0"/><g class="tick" opacity="1" transform="translate(0,556)"><line stroke="currentColor" x2="-6"/><text fill="currentColor" x="-9" dy="0.32em">40</text></g><g class="tick" opacity="1" transform="translate(0,505.45454545454544)"><line stroke="currentColor" x2="-6"/><text fill="currentColor" x="-9" dy="0.32em">45</text></g><g class="tick" opacity="1" transform="translate(0,454.9090909090909)"><line stroke="currentColor" x2="-6"/><text fill="currentColor" x="-9" dy="0.32em">50</text></g><g class="tick" opacity="1" transform="translate(0,404.3636363636364)"><line stroke="currentColor" x2="-6"/><text fill="currentColor" x="-9" dy="0.32em">55</text></g><g class="tick" opacity="1" transform="translate(0,353.8181818181818)"><line stroke="currentColor" x2="-6"/><text fill="currentColor" x="-9" dy="0.32em">60</text></g><g class="tick" opacity="1" transform="translate(0,303.27272727272725)"><line stroke="currentColor" x2="-6"/><text fill="currentColor" x="-9" dy="0.32em">65</text></g><g class="tick" opacity="1" transform="translate(0,252.72727272727275)"><line stroke="currentColor" x2="-6"/><text fill="currentColor" x="-9" dy="0.32em">70</text></g><g class="tick" opacity="1" transform="translate(0,202.1818181818182)"><line stroke="currentColor" x2="-6"/><text fill="currentColor" x="-9" dy="0.32em">75</text></g><g class="tick" opacity="1" transform="translate(0,151.63636363636363)"><line stroke="currentColor" x2="-6"/><text fill="currentColor" x="-9" dy="0.32em">80</text></g><g class="tick" opacity="1" transform="translate(0,101.09090909090907)"><line stroke="currentColor" x2="-6"/><text fill="currentColor" x="-9" dy="0.32em">85</text></g><g class="tick" opacity="1" transform="translate(0,50.54545454545456)"><line stroke="currentColor" x2="-6"/><text fill="currentColor" x="-9" dy="0.32em">90</text></g><g class="tick" opacity="1" transform="translate(0,0)"><line stroke="currentColor" x2="-6"/><text fill="currentColor" x="-9" dy="0.32em">95</text></g><text x="4" text-anchor="start" dominant-baseline="hanging" style="font-family: Arial, sans-serif; font-size: 12px; fill: rgb(123, 123, 123); font-weight: bold;">Inboard(單位百萬)</text></g></g><g id="viz"><g><path d="M0,175.8981818181819C33.6112493777999,175.8981818181819,33.6112493777999,146.5818181818182,67.2224987555998,146.5818181818182C100.8337481333997,146.5818181818182,100.8337481333997,131.4181818181818,134.4449975111996,131.4181818181818C168.1483325037332,131.4181818181818,168.1483325037332,115.24363636363643,201.8516674962668,115.24363636363643C235.4629168740667,115.24363636363643,235.4629168740667,114.23272727272727,269.0741662518666,114.23272727272727C302.6854156296665,114.23272727272727,302.6854156296665,106.14545454545456,336.2966650074664,106.14545454545456C369.9079143852663,106.14545454545456,369.9079143852663,124.34181818181818,403.51916376306616,124.34181818181818C437.22249875559976,124.34181818181818,437.22249875559976,81.88363636363634,470.9258337481334,81.88363636363634C504.5370831259333,81.88363636363634,504.5370831259333,56.610909090909026,538.1483325037332,56.610909090909026C571.7595818815331,56.610909090909026,571.7595818815331,41.44727272727268,605.370831259333,41.44727272727268C638.9820806371329,41.44727272727268,638.9820806371329,538.8145454545454,672.5933300149328,538.8145454545454C706.2966650074663,538.8145454545454,706.2966650074663,471.08363636363634,740,471.08363636363634" stroke="#1f77b4" fill="none"/><text font-family="sans-serif" font-size="10" class="labels" x="605.370831259333" y="41.44727272727268" dx="0" dy="-4" text-anchor="middle"/></g></g></g><text y="4" x="4" style="font-family: Arial, sans-serif; font-size: 12px; fill: black; font-weight: bold; dominant-baseline: hanging;"/></g><g id="grid"><rect x="0" y="0" width="805" height="600" fill="none" stroke="#ccc"/></g></g></svg>